<svg width="48" height="48" viewBox="0 0 48 48" fill="none" xmlns="http://www.w3.org/2000/svg">
<path d="M37.492 9.35197C37.429 9.40797 37.38 9.54097 37.38 9.64597C37.38 9.75097 37.331 9.89097 37.275 9.96797C37.107 10.185 37.254 10.339 37.667 10.374C38.108 10.416 38.29 10.381 38.29 10.241C38.29 10.185 38.353 10.059 38.43 9.96097C38.507 9.86297 38.57 9.73697 38.57 9.68797C38.57 9.57597 38.353 9.44997 38.164 9.44997C38.087 9.44997 37.989 9.40097 37.94 9.34497C37.828 9.21197 37.632 9.21197 37.492 9.35197Z" fill="white"/>
<path d="M35.7 10.0733C35.665 10.1503 35.63 10.2763 35.63 10.3533C35.63 10.4373 35.588 10.5633 35.546 10.6403C35.406 10.8573 35.553 11.0183 35.917 11.0603C36.232 11.1023 36.54 11.0183 36.54 10.8993C36.54 10.8643 36.603 10.7593 36.68 10.6613C36.918 10.3533 36.834 10.1503 36.47 10.1503C36.407 10.1503 36.309 10.1013 36.26 10.0453C36.134 9.89132 35.791 9.91232 35.7 10.0733Z" fill="white"/>
<path d="M33.992 10.7733C33.922 10.8503 33.887 10.9483 33.915 10.9903C33.943 11.0393 33.908 11.1793 33.838 11.3123C33.684 11.5993 33.754 11.7113 34.104 11.7183C34.23 11.7253 34.37 11.7533 34.419 11.7813C34.531 11.8513 34.86 11.6903 34.86 11.5713C34.86 11.5153 34.93 11.3823 35.014 11.2703C35.189 11.0323 35.119 10.8853 34.783 10.8153C34.671 10.7873 34.566 10.7383 34.545 10.7033C34.468 10.5913 34.118 10.6333 33.992 10.7733Z" fill="white"/>
<path d="M36.75 11.8861C33.726 13.1111 33.404 13.3001 33.257 13.9861C33.145 14.5321 33.25 14.8121 33.719 15.2461C34.419 15.8831 34.286 15.8481 35.462 15.6801C36.043 15.5961 36.547 15.4911 36.596 15.4421C36.645 15.3931 36.771 15.0431 36.862 14.6651C37.079 13.8321 37.149 13.6781 37.513 13.3491C37.835 13.0551 38.045 12.9431 38.57 12.7751C39.536 12.4601 39.893 12.1451 39.669 11.8021C39.473 11.5081 39.081 11.2561 38.759 11.2211C38.514 11.2001 38.199 11.3051 36.75 11.8861Z" fill="white"/>
<path d="M32.375 11.5082C32.298 11.5572 32.235 11.6762 32.235 11.7672C32.228 11.8582 32.186 12.0192 32.13 12.1242C32.011 12.3762 32.13 12.5302 32.452 12.5302C32.62 12.5302 32.711 12.5722 32.767 12.6772L32.844 12.8242L33.012 12.6632C33.103 12.5792 33.18 12.4532 33.18 12.3832C33.18 12.3202 33.222 12.2292 33.278 12.1872C33.53 11.9772 33.411 11.6202 33.082 11.6202C32.991 11.6202 32.879 11.5712 32.83 11.5152C32.718 11.3822 32.55 11.3822 32.375 11.5082Z" fill="white"/>
<path d="M27.3 20.5452C21.504 26.1732 21.987 25.7812 21.301 25.4452C20.762 25.1722 20.552 24.8222 20.517 24.1432C20.503 23.6882 20.538 23.4642 20.748 22.7082C21.007 21.7702 21.063 21.3012 20.916 21.1542C20.769 21.0072 20.412 21.0632 20.083 21.2732C19.719 21.5042 18.557 22.6872 18.151 23.2402C17.542 24.0592 17.15 24.9832 17.15 25.6202C17.143 26.7052 15.68 27.6362 12.922 28.3152C11.368 28.7002 10.444 29.2462 9.82099 30.1562C9.46399 30.6882 9.30999 31.1432 9.26099 31.8852C9.11399 34.0412 10.822 37.1212 12.957 38.5702C13.93 39.2352 15.232 39.6692 16.485 39.7392C17.689 39.8022 18.48 39.5502 19.264 38.8502C20.251 37.9752 20.853 36.5962 21.105 34.6432C21.168 34.1882 21.266 33.6982 21.322 33.5512C21.7 32.6482 22.596 31.9902 24.01 31.5702C25.27 31.1922 26.033 30.4082 25.949 29.5682C25.907 29.1342 25.788 28.9382 25.536 28.8472C25.277 28.7562 25.004 28.8402 24.43 29.1902C24.171 29.3442 23.793 29.5122 23.583 29.5542C23.247 29.6242 23.17 29.6172 22.876 29.4912C22.547 29.3442 22.232 28.9312 22.176 28.5812C22.162 28.4692 22.547 28.0282 23.87 26.6562C24.815 25.6832 26.81 23.6042 28.308 22.0502C29.813 20.4892 31.5 18.7392 32.06 18.1652C32.627 17.5842 33.229 16.9612 33.397 16.7722L33.705 16.4292L33.187 15.9532C32.9 15.6872 32.634 15.4702 32.592 15.4772C32.55 15.4772 30.17 17.7592 27.3 20.5452ZM19.432 28.7142C20.475 29.7922 20.79 30.1562 20.79 30.2962C20.79 30.5202 20.559 30.7442 20.328 30.7512C20.16 30.7512 19.978 30.5972 19.222 29.8132C18.732 29.2952 18.298 28.8052 18.263 28.7142C18.2 28.5462 18.284 28.2942 18.438 28.1962C18.669 28.0422 18.879 28.1472 19.432 28.7142ZM17.353 29.6802C17.388 29.6802 17.822 30.1212 18.326 30.6602C19.04 31.4162 19.25 31.6822 19.25 31.8292C19.25 32.0812 19.061 32.2702 18.809 32.2702C18.634 32.2702 18.473 32.1372 17.808 31.4372C16.716 30.3032 16.702 30.2752 16.723 29.9462C16.73 29.8062 17.073 29.6032 17.206 29.6452C17.262 29.6662 17.325 29.6802 17.353 29.6802ZM16.044 31.0942C16.107 31.1432 16.471 31.6542 16.863 32.2282C17.591 33.3062 17.682 33.5442 17.458 33.7682C17.325 33.9012 17.01 33.9152 16.856 33.7892C16.646 33.6212 15.33 31.5982 15.33 31.4512C15.33 31.1222 15.792 30.8982 16.044 31.0942ZM19.145 34.8252C19.432 35.1052 19.376 35.5602 19.026 35.7422C18.795 35.8612 18.592 35.8192 18.361 35.6092C18.011 35.2942 18.277 34.6502 18.76 34.6502C18.893 34.6502 19.04 34.7132 19.145 34.8252ZM18.886 36.7992C19.068 36.9952 19.082 37.1702 18.935 37.4432C18.823 37.6602 18.704 37.7302 18.438 37.7302C18.179 37.7302 18.018 37.6252 17.92 37.3872C17.801 37.0932 17.885 36.8412 18.144 36.6802C18.417 36.5192 18.662 36.5542 18.886 36.7992Z" fill="white"/>
</svg>
