<svg width="48" height="48" viewBox="0 0 48 48" fill="none" xmlns="http://www.w3.org/2000/svg">
<path d="M34.5568 20.875H29.5795C29.4886 20.2311 29.303 19.6591 29.0227 19.1591C28.7424 18.6515 28.3826 18.2197 27.9432 17.8636C27.5038 17.5076 26.9962 17.2348 26.4205 17.0455C25.8523 16.8561 25.2348 16.7614 24.5682 16.7614C23.3636 16.7614 22.3144 17.0606 21.4205 17.6591C20.5265 18.25 19.8333 19.1136 19.3409 20.25C18.8485 21.3788 18.6023 22.75 18.6023 24.3636C18.6023 26.0227 18.8485 27.4167 19.3409 28.5455C19.8409 29.6742 20.5379 30.5265 21.4318 31.1023C22.3258 31.678 23.3598 31.9659 24.5341 31.9659C25.1932 31.9659 25.803 31.8788 26.3636 31.7045C26.9318 31.5303 27.4356 31.2765 27.875 30.9432C28.3144 30.6023 28.678 30.1894 28.9659 29.7045C29.2614 29.2197 29.4659 28.6667 29.5795 28.0455L34.5568 28.0682C34.428 29.1364 34.1061 30.1667 33.5909 31.1591C33.0833 32.1439 32.3977 33.0265 31.5341 33.8068C30.678 34.5795 29.6553 35.1932 28.4659 35.6477C27.2841 36.0947 25.947 36.3182 24.4545 36.3182C22.3788 36.3182 20.5227 35.8485 18.8864 34.9091C17.2576 33.9697 15.9697 32.6098 15.0227 30.8295C14.0833 29.0492 13.6136 26.8939 13.6136 24.3636C13.6136 21.8258 14.0909 19.6667 15.0455 17.8864C16 16.1061 17.2955 14.75 18.9318 13.8182C20.5682 12.8788 22.4091 12.4091 24.4545 12.4091C25.803 12.4091 27.053 12.5985 28.2045 12.9773C29.3636 13.3561 30.3902 13.9091 31.2841 14.6364C32.178 15.3561 32.9053 16.2386 33.4659 17.2841C34.0341 18.3295 34.3977 19.5265 34.5568 20.875Z" fill="white"/>
</svg>
