<svg width="48" height="48" viewBox="0 0 48 48" fill="none" xmlns="http://www.w3.org/2000/svg">
<path d="M10.7968 22.2329V30.341C10.7968 32.5676 12.4938 34.5718 15.2016 35.9734V25.7949C13.2498 24.8664 11.7234 23.6445 10.7968 22.2329Z" fill="white"/>
<path d="M16.8742 36.7131C18.8006 37.4369 21.0744 37.8924 23.5251 37.9885V27.6819C21.0861 27.5918 18.8268 27.1663 16.8742 26.48V36.7131Z" fill="white"/>
<path d="M25.1973 38C27.7544 37.9284 30.1267 37.4639 32.1258 36.7135V26.48C30.099 27.1923 27.7426 27.6238 25.1973 27.6914V38Z" fill="white"/>
<path d="M33.7985 25.7949V35.9724C36.5063 34.5718 38.2033 32.5675 38.2033 30.341V22.2329C37.2772 23.6445 35.7505 24.8664 33.7985 25.7949Z" fill="white"/>
<path d="M26.0483 12.1814C25.8971 12.5378 25.7359 12.8913 25.5707 13.2437C26.9313 13.3077 28.2587 13.4909 29.4982 13.7818C29.6273 13.6276 29.7567 13.4739 29.8884 13.3227L30.9115 12.1484C29.533 11.7389 28.0157 11.4587 26.4084 11.333L26.0483 12.1814Z" fill="white"/>
<path d="M38.2032 18.9258C38.2032 16.935 36.8467 15.1214 34.6237 13.7579L33.3612 15.2066C33.3975 15.2256 33.435 15.2446 33.4706 15.2647C35.386 16.3363 36.4848 17.6714 36.4848 18.9258C36.4848 20.1812 35.386 21.5157 33.4706 22.5879C31.1452 23.8884 27.8758 24.6353 24.4997 24.6353C21.1244 24.6353 17.8547 23.8884 15.5296 22.5879C13.6139 21.5157 12.515 20.1812 12.515 18.9258C12.515 17.6714 13.6139 16.3363 15.5296 15.2647C17.1501 14.3577 19.23 13.7209 21.4843 13.4181C21.7038 12.7278 21.9476 12.0405 22.2154 11.3652C15.7354 11.9745 10.7968 15.1265 10.7968 18.9258C10.7968 23.1611 16.932 26.5944 24.4998 26.5944C32.0685 26.5945 38.2032 23.1611 38.2032 18.9258Z" fill="white"/>
<path d="M10.8281 18.9399C10.8281 20.9307 12.1847 22.7443 14.4076 24.1078L15.6701 22.6592C15.6338 22.6402 15.5963 22.6211 15.5607 22.6011C13.6453 21.5294 12.5465 20.1943 12.5465 18.9399C12.5465 17.6845 13.6453 16.35 15.5607 15.2778C17.8861 13.9773 21.1555 13.2304 24.5316 13.2304C27.9069 13.2304 31.1766 13.9773 33.5017 15.2778C35.4174 16.35 36.5164 17.6845 36.5164 18.9399C36.5164 20.1943 35.4174 21.5294 33.5017 22.6011C31.8812 23.5081 29.8013 24.1448 27.547 24.4477C27.3275 25.1379 27.0837 25.8252 26.8159 26.5005C33.2959 25.8913 38.2345 22.7392 38.2345 18.9399C38.2345 14.7047 32.0993 11.2713 24.5315 11.2713C16.9628 11.2712 10.8281 14.7047 10.8281 18.9399Z" fill="white"/>
</svg>
