<svg width="48" height="48" viewBox="0 0 48 48" fill="none" xmlns="http://www.w3.org/2000/svg">
<g clip-path="url(#clip0_84_795)">
<path d="M36.6567 21.1952C36.2934 19.9504 35.5973 18.691 34.4184 17.7465C33.2419 16.7996 31.6025 16.2051 29.4932 16.2086C28.8241 16.2086 28.2865 16.134 27.8401 16.013C27.0608 15.7985 26.5421 15.4532 26.0401 14.9978C25.6663 14.6564 25.3124 14.2474 24.9144 13.8091C24.3187 13.1549 23.6094 12.4291 22.5633 11.8881C21.5173 11.3452 20.1657 11.0073 18.333 11.0088C14.2827 11.0092 11.0004 14.2915 11 18.3418V26.2393V28.1071V33.8652C11.0004 35.5917 12.3988 36.9901 14.1261 36.9909H33.8739C35.6012 36.9901 36.9996 35.5916 37 33.8652V28.1071V23.6217C36.9996 22.8589 36.9 22.0273 36.6567 21.1952ZM17.3244 35.391H14.1261C13.7019 35.3905 13.3253 35.2214 13.0468 34.9441C12.7695 34.6652 12.6003 34.289 12.6 33.8652V28.1071V26.9287H15.9119V31.9219C15.9119 32.3129 16.2291 32.6309 16.6205 32.6309H17.3244L17.3244 35.391ZM23.6399 35.391H18.0443V32.6309H18.829C19.2204 32.6309 19.5376 32.3129 19.5376 31.9219V26.9287H22.2274V31.9219C22.2274 32.3129 22.5446 32.6309 22.936 32.6309H23.6399L23.6399 35.391ZM29.9557 35.391H24.3601V32.6309H25.1449C25.5358 32.6309 25.8531 32.3129 25.8531 31.9219V26.9287H28.5432V31.9219C28.5432 32.3129 28.8604 32.6309 29.2514 32.6309H29.9556V35.391H29.9557ZM35.4 28.1071V33.8652C35.3996 34.289 35.2305 34.6651 34.9532 34.9441C34.6747 35.2214 34.2981 35.3905 33.8739 35.391H30.6756V32.6309H31.4607C31.8521 32.6309 32.1693 32.3129 32.1693 31.9219V26.9287H35.4V28.1071Z" fill="white"/>
</g>
<defs>
<clipPath id="clip0_84_795">
<rect width="26" height="26" fill="white" transform="translate(11 11)"/>
</clipPath>
</defs>
</svg>
